<svg xmlns="http://www.w3.org/2000/svg" width="1254" height="2280" viewBox="0 0 1254 2280" font-family="Helvetica,Arial,sans-serif">
<style>text{dominant-baseline:middle}.lbl{font-size:13px;font-weight:700}.nm{font-size:8.5px;fill:#444}.ttl{font-size:20px;font-weight:700}.sub{font-size:11.5px;fill:#555}.key{font-size:11px}.col{font-size:10px;fill:#888;font-weight:700}</style>
<rect width="1254" height="2280" fill="#fff"/>
<defs><marker id="a" viewBox="0 0 10 10" refX="9" refY="5" markerWidth="5.5" markerHeight="5.5" orient="auto-start-reverse"><path d="M0,0 L10,5 L0,10 z" fill="#8894a4"/></marker></defs>
<text class="ttl" x="40" y="34">The core account: what supports what</text>
<text class="sub" x="40" y="54">An arrow A → B means A is used in the proof of B — directly, or through unlabelled lemmas. Assumptions on the left; each column is one step further from them.</text>
<text class="sub" x="40" y="70">Extracted from the Lean environment; arrows implied by longer paths are removed. A box with no incoming arrow rests only on definitions and unlabelled lemmas.</text>
<rect x="40" y="84" width="11" height="11" rx="2" fill="#f3e5d0" stroke="#b08a4a"/>
<text class="key" x="56" y="89">fault model (§4.2)</text>
<rect x="180.8" y="84" width="11" height="11" rx="2" fill="#e8e8ea" stroke="#8a8a92"/>
<text class="key" x="196.8" y="89">protocol clauses (§4.1)</text>
<rect x="354.6" y="84" width="11" height="11" rx="2" fill="#fbdcdc" stroke="#c06a6a"/>
<text class="key" x="370.6" y="89">network (§4.3)</text>
<rect x="469.0" y="84" width="11" height="11" rx="2" fill="#dce8f7" stroke="#5a7fa8"/>
<text class="key" x="485.0" y="89">core: safety &amp; liveness (§5–§6)</text>
<text class="col" x="119.0" y="114" text-anchor="middle">assumptions (§4)</text>
<text class="col" x="373.0" y="114" text-anchor="middle">step 1</text>
<text class="col" x="627.0" y="114" text-anchor="middle">step 2</text>
<text class="col" x="881.0" y="114" text-anchor="middle">step 3</text>
<text class="col" x="1135.0" y="114" text-anchor="middle">step 4</text>
<path d="M452.0,398.0 C500.0,398.0 500.0,1190.0 548.0,1190.0" fill="none" stroke="#8894a4" stroke-width="1" opacity="0.5" marker-end="url(#a)"/>
<path d="M452.0,398.0 C627.0,398.0 627.0,1022.0 802.0,1022.0" fill="none" stroke="#8894a4" stroke-width="1" opacity="0.5" marker-end="url(#a)"/>
<path d="M452.0,206.0 C500.0,206.0 500.0,1094.0 548.0,1094.0" fill="none" stroke="#8894a4" stroke-width="1" opacity="0.5" marker-end="url(#a)"/>
<path d="M452.0,1838.0 C373.0,1838.0 373.0,734.0 294.0,734.0" fill="none" stroke="#8894a4" stroke-width="1" opacity="0.5" marker-end="url(#a)"/>
<path d="M452.0,1838.0 C373.0,1838.0 373.0,350.0 294.0,350.0" fill="none" stroke="#8894a4" stroke-width="1" opacity="0.5" marker-end="url(#a)"/>
<path d="M452.0,1838.0 C373.0,1838.0 373.0,398.0 294.0,398.0" fill="none" stroke="#8894a4" stroke-width="1" opacity="0.5" marker-end="url(#a)"/>
<path d="M706.0,1046.0 C754.0,1046.0 754.0,1214.0 802.0,1214.0" fill="none" stroke="#8894a4" stroke-width="1" opacity="0.5" marker-end="url(#a)"/>
<path d="M706.0,1190.0 C754.0,1190.0 754.0,1358.0 802.0,1358.0" fill="none" stroke="#8894a4" stroke-width="1" opacity="0.5" marker-end="url(#a)"/>
<path d="M706.0,1190.0 C754.0,1190.0 754.0,1406.0 802.0,1406.0" fill="none" stroke="#8894a4" stroke-width="1" opacity="0.5" marker-end="url(#a)"/>
<path d="M706.0,902.0 C754.0,902.0 754.0,1070.0 802.0,1070.0" fill="none" stroke="#8894a4" stroke-width="1" opacity="0.5" marker-end="url(#a)"/>
<path d="M198.0,878.0 C246.0,878.0 246.0,254.0 294.0,254.0" fill="none" stroke="#8894a4" stroke-width="1" opacity="0.5" marker-end="url(#a)"/>
<path d="M198.0,1070.0 C246.0,1070.0 246.0,926.0 294.0,926.0" fill="none" stroke="#8894a4" stroke-width="1" opacity="0.5" marker-end="url(#a)"/>
<path d="M198.0,1070.0 C246.0,1070.0 246.0,254.0 294.0,254.0" fill="none" stroke="#8894a4" stroke-width="1" opacity="0.5" marker-end="url(#a)"/>
<path d="M198.0,1166.0 C246.0,1166.0 246.0,974.0 294.0,974.0" fill="none" stroke="#8894a4" stroke-width="1" opacity="0.5" marker-end="url(#a)"/>
<path d="M452.0,1262.0 C627.0,1262.0 627.0,1118.0 802.0,1118.0" fill="none" stroke="#8894a4" stroke-width="1" opacity="0.5" marker-end="url(#a)"/>
<path d="M706.0,854.0 C754.0,854.0 754.0,1070.0 802.0,1070.0" fill="none" stroke="#8894a4" stroke-width="1" opacity="0.5" marker-end="url(#a)"/>
<path d="M706.0,854.0 C754.0,854.0 754.0,1022.0 802.0,1022.0" fill="none" stroke="#8894a4" stroke-width="1" opacity="0.5" marker-end="url(#a)"/>
<path d="M452.0,1646.0 C373.0,1646.0 373.0,1550.0 294.0,1550.0" fill="none" stroke="#8894a4" stroke-width="1" opacity="0.5" marker-end="url(#a)"/>
<path d="M452.0,1646.0 C373.0,1646.0 373.0,1742.0 294.0,1742.0" fill="none" stroke="#8894a4" stroke-width="1" opacity="0.5" marker-end="url(#a)"/>
<path d="M452.0,1646.0 C373.0,1646.0 373.0,1598.0 294.0,1598.0" fill="none" stroke="#8894a4" stroke-width="1" opacity="0.5" marker-end="url(#a)"/>
<path d="M452.0,1646.0 C373.0,1646.0 373.0,1694.0 294.0,1694.0" fill="none" stroke="#8894a4" stroke-width="1" opacity="0.5" marker-end="url(#a)"/>
<path d="M452.0,1646.0 C373.0,1646.0 373.0,446.0 294.0,446.0" fill="none" stroke="#8894a4" stroke-width="1" opacity="0.5" marker-end="url(#a)"/>
<path d="M452.0,1646.0 C373.0,1646.0 373.0,686.0 294.0,686.0" fill="none" stroke="#8894a4" stroke-width="1" opacity="0.5" marker-end="url(#a)"/>
<path d="M198.0,1022.0 C246.0,1022.0 246.0,926.0 294.0,926.0" fill="none" stroke="#8894a4" stroke-width="1" opacity="0.5" marker-end="url(#a)"/>
<path d="M198.0,1022.0 C246.0,1022.0 246.0,254.0 294.0,254.0" fill="none" stroke="#8894a4" stroke-width="1" opacity="0.5" marker-end="url(#a)"/>
<path d="M452.0,638.0 C627.0,638.0 627.0,1358.0 802.0,1358.0" fill="none" stroke="#8894a4" stroke-width="1" opacity="0.5" marker-end="url(#a)"/>
<path d="M452.0,638.0 C373.0,638.0 373.0,830.0 294.0,830.0" fill="none" stroke="#8894a4" stroke-width="1" opacity="0.5" marker-end="url(#a)"/>
<path d="M452.0,638.0 C500.0,638.0 500.0,1430.0 548.0,1430.0" fill="none" stroke="#8894a4" stroke-width="1" opacity="0.5" marker-end="url(#a)"/>
<path d="M452.0,638.0 C373.0,638.0 373.0,974.0 294.0,974.0" fill="none" stroke="#8894a4" stroke-width="1" opacity="0.5" marker-end="url(#a)"/>
<path d="M452.0,638.0 C754.0,638.0 754.0,1190.0 1056.0,1190.0" fill="none" stroke="#8894a4" stroke-width="1" opacity="0.5" marker-end="url(#a)"/>
<path d="M452.0,350.0 C500.0,350.0 500.0,1190.0 548.0,1190.0" fill="none" stroke="#8894a4" stroke-width="1" opacity="0.5" marker-end="url(#a)"/>
<path d="M452.0,590.0 C754.0,590.0 754.0,1190.0 1056.0,1190.0" fill="none" stroke="#8894a4" stroke-width="1" opacity="0.5" marker-end="url(#a)"/>
<path d="M452.0,590.0 C373.0,590.0 373.0,1022.0 294.0,1022.0" fill="none" stroke="#8894a4" stroke-width="1" opacity="0.5" marker-end="url(#a)"/>
<path d="M452.0,590.0 C500.0,590.0 500.0,1382.0 548.0,1382.0" fill="none" stroke="#8894a4" stroke-width="1" opacity="0.5" marker-end="url(#a)"/>
<path d="M452.0,590.0 C373.0,590.0 373.0,1214.0 294.0,1214.0" fill="none" stroke="#8894a4" stroke-width="1" opacity="0.5" marker-end="url(#a)"/>
<path d="M452.0,254.0 C500.0,254.0 500.0,902.0 548.0,902.0" fill="none" stroke="#8894a4" stroke-width="1" opacity="0.5" marker-end="url(#a)"/>
<path d="M452.0,254.0 C500.0,254.0 500.0,998.0 548.0,998.0" fill="none" stroke="#8894a4" stroke-width="1" opacity="0.5" marker-end="url(#a)"/>
<path d="M452.0,254.0 C500.0,254.0 500.0,1430.0 548.0,1430.0" fill="none" stroke="#8894a4" stroke-width="1" opacity="0.5" marker-end="url(#a)"/>
<path d="M452.0,254.0 C500.0,254.0 500.0,1142.0 548.0,1142.0" fill="none" stroke="#8894a4" stroke-width="1" opacity="0.5" marker-end="url(#a)"/>
<path d="M452.0,254.0 C500.0,254.0 500.0,1286.0 548.0,1286.0" fill="none" stroke="#8894a4" stroke-width="1" opacity="0.5" marker-end="url(#a)"/>
<path d="M452.0,254.0 C754.0,254.0 754.0,1190.0 1056.0,1190.0" fill="none" stroke="#8894a4" stroke-width="1" opacity="0.5" marker-end="url(#a)"/>
<path d="M452.0,254.0 C500.0,254.0 500.0,1238.0 548.0,1238.0" fill="none" stroke="#8894a4" stroke-width="1" opacity="0.5" marker-end="url(#a)"/>
<path d="M452.0,254.0 C500.0,254.0 500.0,1094.0 548.0,1094.0" fill="none" stroke="#8894a4" stroke-width="1" opacity="0.5" marker-end="url(#a)"/>
<path d="M452.0,254.0 C500.0,254.0 500.0,1046.0 548.0,1046.0" fill="none" stroke="#8894a4" stroke-width="1" opacity="0.5" marker-end="url(#a)"/>
<path d="M452.0,254.0 C500.0,254.0 500.0,950.0 548.0,950.0" fill="none" stroke="#8894a4" stroke-width="1" opacity="0.5" marker-end="url(#a)"/>
<path d="M706.0,806.0 C754.0,806.0 754.0,974.0 802.0,974.0" fill="none" stroke="#8894a4" stroke-width="1" opacity="0.5" marker-end="url(#a)"/>
<path d="M452.0,1166.0 C373.0,1166.0 373.0,1118.0 294.0,1118.0" fill="none" stroke="#8894a4" stroke-width="1" opacity="0.5" marker-end="url(#a)"/>
<path d="M198.0,974.0 C246.0,974.0 246.0,206.0 294.0,206.0" fill="none" stroke="#8894a4" stroke-width="1" opacity="0.5" marker-end="url(#a)"/>
<path d="M198.0,974.0 C246.0,974.0 246.0,494.0 294.0,494.0" fill="none" stroke="#8894a4" stroke-width="1" opacity="0.5" marker-end="url(#a)"/>
<path d="M198.0,974.0 C373.0,974.0 373.0,998.0 548.0,998.0" fill="none" stroke="#8894a4" stroke-width="1" opacity="0.5" marker-end="url(#a)"/>
<path d="M198.0,974.0 C373.0,974.0 373.0,1142.0 548.0,1142.0" fill="none" stroke="#8894a4" stroke-width="1" opacity="0.5" marker-end="url(#a)"/>
<path d="M198.0,974.0 C246.0,974.0 246.0,878.0 294.0,878.0" fill="none" stroke="#8894a4" stroke-width="1" opacity="0.5" marker-end="url(#a)"/>
<path d="M198.0,974.0 C246.0,974.0 246.0,830.0 294.0,830.0" fill="none" stroke="#8894a4" stroke-width="1" opacity="0.5" marker-end="url(#a)"/>
<path d="M198.0,974.0 C246.0,974.0 246.0,734.0 294.0,734.0" fill="none" stroke="#8894a4" stroke-width="1" opacity="0.5" marker-end="url(#a)"/>
<path d="M198.0,974.0 C246.0,974.0 246.0,782.0 294.0,782.0" fill="none" stroke="#8894a4" stroke-width="1" opacity="0.5" marker-end="url(#a)"/>
<path d="M198.0,974.0 C373.0,974.0 373.0,1286.0 548.0,1286.0" fill="none" stroke="#8894a4" stroke-width="1" opacity="0.5" marker-end="url(#a)"/>
<path d="M198.0,974.0 C627.0,974.0 627.0,1190.0 1056.0,1190.0" fill="none" stroke="#8894a4" stroke-width="1" opacity="0.5" marker-end="url(#a)"/>
<path d="M198.0,974.0 C246.0,974.0 246.0,158.0 294.0,158.0" fill="none" stroke="#8894a4" stroke-width="1" opacity="0.5" marker-end="url(#a)"/>
<path d="M198.0,974.0 C373.0,974.0 373.0,1046.0 548.0,1046.0" fill="none" stroke="#8894a4" stroke-width="1" opacity="0.5" marker-end="url(#a)"/>
<path d="M198.0,974.0 C246.0,974.0 246.0,542.0 294.0,542.0" fill="none" stroke="#8894a4" stroke-width="1" opacity="0.5" marker-end="url(#a)"/>
<path d="M706.0,998.0 C754.0,998.0 754.0,1166.0 802.0,1166.0" fill="none" stroke="#8894a4" stroke-width="1" opacity="0.5" marker-end="url(#a)"/>
<path d="M706.0,998.0 C754.0,998.0 754.0,1214.0 802.0,1214.0" fill="none" stroke="#8894a4" stroke-width="1" opacity="0.5" marker-end="url(#a)"/>
<path d="M706.0,1574.0 C881.0,1574.0 881.0,1190.0 1056.0,1190.0" fill="none" stroke="#8894a4" stroke-width="1" opacity="0.5" marker-end="url(#a)"/>
<path d="M198.0,926.0 C246.0,926.0 246.0,734.0 294.0,734.0" fill="none" stroke="#8894a4" stroke-width="1" opacity="0.5" marker-end="url(#a)"/>
<path d="M198.0,926.0 C246.0,926.0 246.0,254.0 294.0,254.0" fill="none" stroke="#8894a4" stroke-width="1" opacity="0.5" marker-end="url(#a)"/>
<path d="M452.0,1454.0 C373.0,1454.0 373.0,158.0 294.0,158.0" fill="none" stroke="#8894a4" stroke-width="1" opacity="0.5" marker-end="url(#a)"/>
<path d="M452.0,1454.0 C373.0,1454.0 373.0,398.0 294.0,398.0" fill="none" stroke="#8894a4" stroke-width="1" opacity="0.5" marker-end="url(#a)"/>
<path d="M960.0,974.0 C1008.0,974.0 1008.0,1190.0 1056.0,1190.0" fill="none" stroke="#8894a4" stroke-width="1" opacity="0.5" marker-end="url(#a)"/>
<path d="M452.0,302.0 C500.0,302.0 500.0,1286.0 548.0,1286.0" fill="none" stroke="#8894a4" stroke-width="1" opacity="0.5" marker-end="url(#a)"/>
<path d="M452.0,302.0 C500.0,302.0 500.0,1046.0 548.0,1046.0" fill="none" stroke="#8894a4" stroke-width="1" opacity="0.5" marker-end="url(#a)"/>
<path d="M452.0,302.0 C500.0,302.0 500.0,1142.0 548.0,1142.0" fill="none" stroke="#8894a4" stroke-width="1" opacity="0.5" marker-end="url(#a)"/>
<path d="M706.0,950.0 C754.0,950.0 754.0,1118.0 802.0,1118.0" fill="none" stroke="#8894a4" stroke-width="1" opacity="0.5" marker-end="url(#a)"/>
<path d="M452.0,542.0 C627.0,542.0 627.0,1118.0 802.0,1118.0" fill="none" stroke="#8894a4" stroke-width="1" opacity="0.5" marker-end="url(#a)"/>
<path d="M452.0,542.0 C500.0,542.0 500.0,1382.0 548.0,1382.0" fill="none" stroke="#8894a4" stroke-width="1" opacity="0.5" marker-end="url(#a)"/>
<path d="M452.0,494.0 C500.0,494.0 500.0,1334.0 548.0,1334.0" fill="none" stroke="#8894a4" stroke-width="1" opacity="0.5" marker-end="url(#a)"/>
<path d="M198.0,1118.0 C246.0,1118.0 246.0,206.0 294.0,206.0" fill="none" stroke="#8894a4" stroke-width="1" opacity="0.5" marker-end="url(#a)"/>
<path d="M198.0,1118.0 C246.0,1118.0 246.0,494.0 294.0,494.0" fill="none" stroke="#8894a4" stroke-width="1" opacity="0.5" marker-end="url(#a)"/>
<path d="M198.0,1118.0 C373.0,1118.0 373.0,998.0 548.0,998.0" fill="none" stroke="#8894a4" stroke-width="1" opacity="0.5" marker-end="url(#a)"/>
<path d="M198.0,1118.0 C246.0,1118.0 246.0,926.0 294.0,926.0" fill="none" stroke="#8894a4" stroke-width="1" opacity="0.5" marker-end="url(#a)"/>
<path d="M198.0,1118.0 C246.0,1118.0 246.0,878.0 294.0,878.0" fill="none" stroke="#8894a4" stroke-width="1" opacity="0.5" marker-end="url(#a)"/>
<path d="M198.0,1118.0 C373.0,1118.0 373.0,1142.0 548.0,1142.0" fill="none" stroke="#8894a4" stroke-width="1" opacity="0.5" marker-end="url(#a)"/>
<path d="M198.0,1118.0 C373.0,1118.0 373.0,1286.0 548.0,1286.0" fill="none" stroke="#8894a4" stroke-width="1" opacity="0.5" marker-end="url(#a)"/>
<path d="M198.0,1118.0 C627.0,1118.0 627.0,1190.0 1056.0,1190.0" fill="none" stroke="#8894a4" stroke-width="1" opacity="0.5" marker-end="url(#a)"/>
<path d="M198.0,1118.0 C373.0,1118.0 373.0,1046.0 548.0,1046.0" fill="none" stroke="#8894a4" stroke-width="1" opacity="0.5" marker-end="url(#a)"/>
<path d="M198.0,1118.0 C373.0,1118.0 373.0,1238.0 548.0,1238.0" fill="none" stroke="#8894a4" stroke-width="1" opacity="0.5" marker-end="url(#a)"/>
<path d="M452.0,158.0 C500.0,158.0 500.0,854.0 548.0,854.0" fill="none" stroke="#8894a4" stroke-width="1" opacity="0.5" marker-end="url(#a)"/>
<path d="M452.0,446.0 C500.0,446.0 500.0,1382.0 548.0,1382.0" fill="none" stroke="#8894a4" stroke-width="1" opacity="0.5" marker-end="url(#a)"/>
<path d="M452.0,446.0 C500.0,446.0 500.0,1430.0 548.0,1430.0" fill="none" stroke="#8894a4" stroke-width="1" opacity="0.5" marker-end="url(#a)"/>
<path d="M452.0,446.0 C500.0,446.0 500.0,806.0 548.0,806.0" fill="none" stroke="#8894a4" stroke-width="1" opacity="0.5" marker-end="url(#a)"/>
<path d="M706.0,1094.0 C754.0,1094.0 754.0,1262.0 802.0,1262.0" fill="none" stroke="#8894a4" stroke-width="1" opacity="0.5" marker-end="url(#a)"/>
<path d="M706.0,1142.0 C754.0,1142.0 754.0,1310.0 802.0,1310.0" fill="none" stroke="#8894a4" stroke-width="1" opacity="0.5" marker-end="url(#a)"/>
<path d="M452.0,686.0 C500.0,686.0 500.0,1574.0 548.0,1574.0" fill="none" stroke="#8894a4" stroke-width="1" opacity="0.5" marker-end="url(#a)"/>
<path d="M452.0,686.0 C500.0,686.0 500.0,1526.0 548.0,1526.0" fill="none" stroke="#8894a4" stroke-width="1" opacity="0.5" marker-end="url(#a)"/>
<path d="M452.0,686.0 C627.0,686.0 627.0,974.0 802.0,974.0" fill="none" stroke="#8894a4" stroke-width="1" opacity="0.5" marker-end="url(#a)"/>
<path d="M452.0,686.0 C500.0,686.0 500.0,1478.0 548.0,1478.0" fill="none" stroke="#8894a4" stroke-width="1" opacity="0.5" marker-end="url(#a)"/>
<g><title>LeanDag.FinWhale.Creation.lemma18 — the two delivery lemmas, derived from C1, C2 and C3</title>
<rect x="294.0" y="140.0" width="158" height="36" rx="5" fill="#dce8f7" stroke="#5a7fa8" stroke-width="1.2"/>
<text class="lbl" x="373.0" y="152.0" text-anchor="middle">FW7</text>
<text class="nm" x="373.0" y="166.0" text-anchor="middle">lemma18</text></g>
<g><title>LeanDag.BlockUniverse.exists_common_mem_of_quorums — two quorum-backed sets of round-`n` blocks share a block</title>
<rect x="294.0" y="188.0" width="158" height="36" rx="5" fill="#dce8f7" stroke="#5a7fa8" stroke-width="1.2"/>
<text class="lbl" x="373.0" y="200.0" text-anchor="middle">T6</text>
<text class="nm" x="373.0" y="214.0" text-anchor="middle">exists_common_mem_of_quo…</text></g>
<g><title>LeanDag.ValidWrt.iff_validAt — the core&#x27;s validity is the validity family at its quorum, with distinct creators and a self-parent</title>
<rect x="294.0" y="236.0" width="158" height="36" rx="5" fill="#dce8f7" stroke="#5a7fa8" stroke-width="1.2"/>
<text class="lbl" x="373.0" y="248.0" text-anchor="middle">T1a</text>
<text class="nm" x="373.0" y="262.0" text-anchor="middle">iff_validAt</text></g>
<g><title>LeanDag.BlockRecord.eq_of_creator_eq — non-equivocation, in usable form, at any record</title>
<rect x="294.0" y="284.0" width="158" height="36" rx="5" fill="#dce8f7" stroke="#5a7fa8" stroke-width="1.2"/>
<text class="lbl" x="373.0" y="296.0" text-anchor="middle">T1</text>
<text class="nm" x="373.0" y="310.0" text-anchor="middle">eq_of_creator_eq</text></g>
<g><title>LeanDag.ViewPace.covers_of_converges — the referencing clause, unfused from the network&#x27;s</title>
<rect x="294.0" y="332.0" width="158" height="36" rx="5" fill="#dce8f7" stroke="#5a7fa8" stroke-width="1.2"/>
<text class="lbl" x="373.0" y="344.0" text-anchor="middle">V1</text>
<text class="nm" x="373.0" y="358.0" text-anchor="middle">covers_of_converges</text></g>
<g><title>LeanDag.ViewPace.driftOn_of_catchup — drift is derived, at the collapsed constant</title>
<rect x="294.0" y="380.0" width="158" height="36" rx="5" fill="#dce8f7" stroke="#5a7fa8" stroke-width="1.2"/>
<text class="lbl" x="373.0" y="392.0" text-anchor="middle">L11</text>
<text class="nm" x="373.0" y="406.0" text-anchor="middle">driftOn_of_catchup</text></g>
<g><title>LeanDag.Properties.Banded — the four properties a rule shows</title>
<rect x="294.0" y="428.0" width="158" height="36" rx="5" fill="#dce8f7" stroke="#5a7fa8" stroke-width="1.2"/>
<text class="lbl" x="373.0" y="440.0" text-anchor="middle">TP2</text>
<text class="nm" x="373.0" y="454.0" text-anchor="middle">Banded</text></g>
<g><title>LeanDag.exists_correct_mem_inter — two quorums share a correct validator</title>
<rect x="294.0" y="476.0" width="158" height="36" rx="5" fill="#dce8f7" stroke="#5a7fa8" stroke-width="1.2"/>
<text class="lbl" x="373.0" y="488.0" text-anchor="middle">T0</text>
<text class="nm" x="373.0" y="502.0" text-anchor="middle">exists_correct_mem_inter</text></g>
<g><title>LeanDag.FinWhale.direct_commit_unique — a fast commit excludes a second commit, a skip, and any other indirect commit: FinWhale&#x27;s laws</title>
<rect x="294.0" y="524.0" width="158" height="36" rx="5" fill="#dce8f7" stroke="#5a7fa8" stroke-width="1.2"/>
<text class="lbl" x="373.0" y="536.0" text-anchor="middle">FW3</text>
<text class="nm" x="373.0" y="550.0" text-anchor="middle">direct_commit_unique</text></g>
<g><title>LeanDag.AnchoredRule.decided_unique — agreement, once for every anchored rule</title>
<rect x="294.0" y="572.0" width="158" height="36" rx="5" fill="#dce8f7" stroke="#5a7fa8" stroke-width="1.2"/>
<text class="lbl" x="373.0" y="584.0" text-anchor="middle">M6</text>
<text class="nm" x="373.0" y="598.0" text-anchor="middle">decided_unique</text></g>
<g><title>LeanDag.directCommit_of_leader_mem — a correct leader is committed</title>
<rect x="294.0" y="620.0" width="158" height="36" rx="5" fill="#dce8f7" stroke="#5a7fa8" stroke-width="1.2"/>
<text class="lbl" x="373.0" y="632.0" text-anchor="middle">L4</text>
<text class="nm" x="373.0" y="646.0" text-anchor="middle">directCommit_of_leader_m…</text></g>
<g><title>LeanDag.Properties.Support — the support and its two laws; the precondition every liveness theorem reads</title>
<rect x="294.0" y="668.0" width="158" height="36" rx="5" fill="#dce8f7" stroke="#5a7fa8" stroke-width="1.2"/>
<text class="lbl" x="373.0" y="680.0" text-anchor="middle">TP3</text>
<text class="nm" x="373.0" y="694.0" text-anchor="middle">Support</text></g>
<g><title>LeanDag.ViewPace.heldOf_inj — a pacing structure induces a delivery layer; the acceptance rule is derived</title>
<rect x="294.0" y="716.0" width="158" height="36" rx="5" fill="#dce8f7" stroke="#5a7fa8" stroke-width="1.2"/>
<text class="lbl" x="373.0" y="728.0" text-anchor="middle">V19</text>
<text class="nm" x="373.0" y="742.0" text-anchor="middle">heldOf_inj</text></g>
<g><title>LeanDag.FinWhale.lemma4 — a fast commit makes every block two rounds up FP-evidence for it</title>
<rect x="294.0" y="764.0" width="158" height="36" rx="5" fill="#dce8f7" stroke="#5a7fa8" stroke-width="1.2"/>
<text class="lbl" x="373.0" y="776.0" text-anchor="middle">FW1</text>
<text class="nm" x="373.0" y="790.0" text-anchor="middle">lemma4</text></g>
<g><title>LeanDag.directCommit_of_correct_leader — at `T := Correct`</title>
<rect x="294.0" y="812.0" width="158" height="36" rx="5" fill="#dce8f7" stroke="#5a7fa8" stroke-width="1.2"/>
<text class="lbl" x="373.0" y="824.0" text-anchor="middle">L4′</text>
<text class="nm" x="373.0" y="838.0" text-anchor="middle">directCommit_of_correct_…</text></g>
<g><title>LeanDag.FinWhale.lemma22 — three consecutive correct leaders in every window of `3f + 3`</title>
<rect x="294.0" y="860.0" width="158" height="36" rx="5" fill="#dce8f7" stroke="#5a7fa8" stroke-width="1.2"/>
<text class="lbl" x="373.0" y="872.0" text-anchor="middle">FW10</text>
<text class="nm" x="373.0" y="886.0" text-anchor="middle">lemma22</text></g>
<g><title>LeanDag.exists_reliable_parent — the rush bound: a valid block certifies the honest floor</title>
<rect x="294.0" y="908.0" width="158" height="36" rx="5" fill="#dce8f7" stroke="#5a7fa8" stroke-width="1.2"/>
<text class="lbl" x="373.0" y="920.0" text-anchor="middle">CU5</text>
<text class="nm" x="373.0" y="934.0" text-anchor="middle">exists_reliable_parent</text></g>
<g><title>LeanDag.commits_recur_on — commits recur</title>
<rect x="294.0" y="956.0" width="158" height="36" rx="5" fill="#dce8f7" stroke="#5a7fa8" stroke-width="1.2"/>
<text class="lbl" x="373.0" y="968.0" text-anchor="middle">L6</text>
<text class="nm" x="373.0" y="982.0" text-anchor="middle">commits_recur_on</text></g>
<g><title>LeanDag.AnchoredRule.commitSeq_agree — the committed-leader sequence is agreed</title>
<rect x="294.0" y="1004.0" width="158" height="36" rx="5" fill="#dce8f7" stroke="#5a7fa8" stroke-width="1.2"/>
<text class="lbl" x="373.0" y="1016.0" text-anchor="middle">M7</text>
<text class="nm" x="373.0" y="1030.0" text-anchor="middle">commitSeq_agree</text></g>
<g><title>LeanDag.AnchoredRule.decided_below_of_committed_run — a committed run of eligible span clears everything below</title>
<rect x="294.0" y="1052.0" width="158" height="36" rx="5" fill="#dce8f7" stroke="#5a7fa8" stroke-width="1.2"/>
<text class="lbl" x="373.0" y="1064.0" text-anchor="middle">L8e</text>
<text class="nm" x="373.0" y="1078.0" text-anchor="middle">decided_below_of_committ…</text></g>
<g><title>LeanDag.AnchoredRule.decided_full — decisions propagate to the full view</title>
<rect x="294.0" y="1100.0" width="158" height="36" rx="5" fill="#dce8f7" stroke="#5a7fa8" stroke-width="1.2"/>
<text class="lbl" x="373.0" y="1112.0" text-anchor="middle">L3</text>
<text class="nm" x="373.0" y="1126.0" text-anchor="middle">decided_full</text></g>
<g><title>LeanDag.AnchoredRule.decided_mono — decisions are monotone in the view</title>
<rect x="294.0" y="1148.0" width="158" height="36" rx="5" fill="#dce8f7" stroke="#5a7fa8" stroke-width="1.2"/>
<text class="lbl" x="373.0" y="1160.0" text-anchor="middle">L2</text>
<text class="nm" x="373.0" y="1174.0" text-anchor="middle">decided_mono</text></g>
<g><title>LeanDag.AnchoredRule.eq_of_decided_commit — corollaries of agreement</title>
<rect x="294.0" y="1196.0" width="158" height="36" rx="5" fill="#dce8f7" stroke="#5a7fa8" stroke-width="1.2"/>
<text class="lbl" x="373.0" y="1208.0" text-anchor="middle">M6′</text>
<text class="nm" x="373.0" y="1222.0" text-anchor="middle">eq_of_decided_commit</text></g>
<g><title>LeanDag.FinWhale.decided_of_wellFormed — safety with the views and the reverse pass supplied rather than assumed: the pass lands in the relation</title>
<rect x="294.0" y="1244.0" width="158" height="36" rx="5" fill="#dce8f7" stroke="#5a7fa8" stroke-width="1.2"/>
<text class="lbl" x="373.0" y="1256.0" text-anchor="middle">FW6</text>
<text class="nm" x="373.0" y="1270.0" text-anchor="middle">decided_of_wellFormed</text></g>
<g><title>LeanDag.FinWhale.equivocating_margin — the committee is the least at which that holds, and the counting behind the findings of §20.8</title>
<rect x="294.0" y="1292.0" width="158" height="36" rx="5" fill="#dce8f7" stroke="#5a7fa8" stroke-width="1.2"/>
<text class="lbl" x="373.0" y="1304.0" text-anchor="middle">FW2</text>
<text class="nm" x="373.0" y="1318.0" text-anchor="middle">equivocating_margin</text></g>
<g><title>LeanDag.FinWhale.lemma23 — every slot below a committed triple is decided, and the sequences then coincide</title>
<rect x="294.0" y="1340.0" width="158" height="36" rx="5" fill="#dce8f7" stroke="#5a7fa8" stroke-width="1.2"/>
<text class="lbl" x="373.0" y="1352.0" text-anchor="middle">FW11</text>
<text class="nm" x="373.0" y="1366.0" text-anchor="middle">lemma23</text></g>
<g><title>LeanDag.FinWhale.theorem14 — the delivery order extends rather than revises, and repeats nothing</title>
<rect x="294.0" y="1388.0" width="158" height="36" rx="5" fill="#dce8f7" stroke="#5a7fa8" stroke-width="1.2"/>
<text class="lbl" x="373.0" y="1400.0" text-anchor="middle">FW5</text>
<text class="nm" x="373.0" y="1414.0" text-anchor="middle">theorem14</text></g>
<g><title>LeanDag.PaceCore.drift_collapse — drift collapses to `Δ + proc`, from any spread</title>
<rect x="294.0" y="1436.0" width="158" height="36" rx="5" fill="#dce8f7" stroke="#5a7fa8" stroke-width="1.2"/>
<text class="lbl" x="373.0" y="1448.0" text-anchor="middle">CU2</text>
<text class="nm" x="373.0" y="1462.0" text-anchor="middle">drift_collapse</text></g>
<g><title>LeanDag.PaceCore.refs_held — the converse of P7 on the trunk; liveness with bounded storage from one structure</title>
<rect x="294.0" y="1484.0" width="158" height="36" rx="5" fill="#dce8f7" stroke="#5a7fa8" stroke-width="1.2"/>
<text class="lbl" x="373.0" y="1496.0" text-anchor="middle">V20</text>
<text class="nm" x="373.0" y="1510.0" text-anchor="middle">refs_held</text></g>
<g><title>LeanDag.Properties.Arcs.decided_none_of_novel — the prompt skip: a novel slot is skipped, and conflicts with no verdict</title>
<rect x="294.0" y="1532.0" width="158" height="36" rx="5" fill="#dce8f7" stroke="#5a7fa8" stroke-width="1.2"/>
<text class="lbl" x="373.0" y="1544.0" text-anchor="middle">TP9</text>
<text class="nm" x="373.0" y="1558.0" text-anchor="middle">decided_none_of_novel</text></g>
<g><title>LeanDag.Properties.Arcs.decided_of_truncate — verdicts across a cut, a fill, and any stack of mechanisms</title>
<rect x="294.0" y="1580.0" width="158" height="36" rx="5" fill="#dce8f7" stroke="#5a7fa8" stroke-width="1.2"/>
<text class="lbl" x="373.0" y="1592.0" text-anchor="middle">TP6</text>
<text class="nm" x="373.0" y="1606.0" text-anchor="middle">decided_of_truncate</text></g>
<g><title>LeanDag.Properties.DagRule — the carrier a mechanism reads, with its three laws</title>
<rect x="294.0" y="1628.0" width="158" height="36" rx="5" fill="#dce8f7" stroke="#5a7fa8" stroke-width="1.2"/>
<text class="lbl" x="373.0" y="1640.0" text-anchor="middle">TP1</text>
<text class="nm" x="373.0" y="1654.0" text-anchor="middle">DagRule</text></g>
<g><title>LeanDag.Properties.Safe — the safety headline: across any stack, and at every slot across an extension</title>
<rect x="294.0" y="1676.0" width="158" height="36" rx="5" fill="#dce8f7" stroke="#5a7fa8" stroke-width="1.2"/>
<text class="lbl" x="373.0" y="1688.0" text-anchor="middle">TP11</text>
<text class="nm" x="373.0" y="1702.0" text-anchor="middle">Safe</text></g>
<g><title>LeanDag.Properties.SelfParent.reaches_of_creator — inclusion from self-reference: a reliable block reaches its author&#x27;s next commit</title>
<rect x="294.0" y="1724.0" width="158" height="36" rx="5" fill="#dce8f7" stroke="#5a7fa8" stroke-width="1.2"/>
<text class="lbl" x="373.0" y="1736.0" text-anchor="middle">TP10</text>
<text class="nm" x="373.0" y="1750.0" text-anchor="middle">reaches_of_creator</text></g>
<g><title>LeanDag.View.mem_of_reaches — causal history does not escape a view</title>
<rect x="294.0" y="1772.0" width="158" height="36" rx="5" fill="#dce8f7" stroke="#5a7fa8" stroke-width="1.2"/>
<text class="lbl" x="373.0" y="1784.0" text-anchor="middle">T6a</text>
<text class="nm" x="373.0" y="1798.0" text-anchor="middle">mem_of_reaches</text></g>
<g><title>LeanDag.ViewPace — a partial build schedule, in which *stuck* is expressible: the structure, production, and the spine</title>
<rect x="294.0" y="1820.0" width="158" height="36" rx="5" fill="#dce8f7" stroke="#5a7fa8" stroke-width="1.2"/>
<text class="lbl" x="373.0" y="1832.0" text-anchor="middle">V17</text>
<text class="nm" x="373.0" y="1846.0" text-anchor="middle">ViewPace</text></g>
<g><title>LeanDag.convergesWithin_iff_bounded — the bound factored out of convergence</title>
<rect x="294.0" y="1868.0" width="158" height="36" rx="5" fill="#dce8f7" stroke="#5a7fa8" stroke-width="1.2"/>
<text class="lbl" x="373.0" y="1880.0" text-anchor="middle">V4</text>
<text class="nm" x="373.0" y="1894.0" text-anchor="middle">convergesWithin_iff_boun…</text></g>
<g><title>LeanDag.decided_none_of_leader_absent — an absent leader is skipped</title>
<rect x="294.0" y="1916.0" width="158" height="36" rx="5" fill="#dce8f7" stroke="#5a7fa8" stroke-width="1.2"/>
<text class="lbl" x="373.0" y="1928.0" text-anchor="middle">L5</text>
<text class="nm" x="373.0" y="1942.0" text-anchor="middle">decided_none_of_leader_a…</text></g>
<g><title>LeanDag.decided_of_committed_above — a committed slot above decides everything below (spaced schedules)</title>
<rect x="294.0" y="1964.0" width="158" height="36" rx="5" fill="#dce8f7" stroke="#5a7fa8" stroke-width="1.2"/>
<text class="lbl" x="373.0" y="1976.0" text-anchor="middle">L8d</text>
<text class="nm" x="373.0" y="1990.0" text-anchor="middle">decided_of_committed_abo…</text></g>
<g><title>LeanDag.decided_of_first_eligible_commit — a slot resolves through its first eligible commit</title>
<rect x="294.0" y="2012.0" width="158" height="36" rx="5" fill="#dce8f7" stroke="#5a7fa8" stroke-width="1.2"/>
<text class="lbl" x="373.0" y="2024.0" text-anchor="middle">L8c</text>
<text class="nm" x="373.0" y="2038.0" text-anchor="middle">decided_of_first_eligibl…</text></g>
<g><title>LeanDag.ledgerSet_mono — the ledger is monotone and agreed</title>
<rect x="294.0" y="2060.0" width="158" height="36" rx="5" fill="#dce8f7" stroke="#5a7fa8" stroke-width="1.2"/>
<text class="lbl" x="373.0" y="2072.0" text-anchor="middle">M8</text>
<text class="nm" x="373.0" y="2086.0" text-anchor="middle">ledgerSet_mono</text></g>
<g><title>LeanDag.outputAt_unique — a block enters at one slot, agreed</title>
<rect x="294.0" y="2108.0" width="158" height="36" rx="5" fill="#dce8f7" stroke="#5a7fa8" stroke-width="1.2"/>
<text class="lbl" x="373.0" y="2120.0" text-anchor="middle">M9</text>
<text class="nm" x="373.0" y="2134.0" text-anchor="middle">outputAt_unique</text></g>
<g><title>LeanDag.round_le_of_reaches — causal history is non-increasing in round</title>
<rect x="294.0" y="2156.0" width="158" height="36" rx="5" fill="#dce8f7" stroke="#5a7fa8" stroke-width="1.2"/>
<text class="lbl" x="373.0" y="2168.0" text-anchor="middle">T2</text>
<text class="nm" x="373.0" y="2182.0" text-anchor="middle">round_le_of_reaches</text></g>
<g><title>LeanDag.waveRobin — a schedule satisfying L10&#x27;s fairness and shape hypotheses exists at every committee: the wave-aligned rotation, with no premise beyond the fault model</title>
<rect x="294.0" y="2204.0" width="158" height="36" rx="5" fill="#dce8f7" stroke="#5a7fa8" stroke-width="1.2"/>
<text class="lbl" x="373.0" y="2216.0" text-anchor="middle">L12</text>
<text class="nm" x="373.0" y="2230.0" text-anchor="middle">waveRobin</text></g>
<g><title>LeanDag.ValidWrt.self_parent — ValidWrt.self_parent</title>
<rect x="40.0" y="860.0" width="158" height="36" rx="5" fill="#e8e8ea" stroke="#8a8a92" stroke-width="1.2"/>
<text class="lbl" x="119.0" y="872.0" text-anchor="middle">P3&#x27;</text>
<text class="nm" x="119.0" y="886.0" text-anchor="middle">self_parent</text></g>
<g><title>LeanDag.ValidWrt.distinct_creators — ValidWrt.distinct_creators</title>
<rect x="40.0" y="908.0" width="158" height="36" rx="5" fill="#e8e8ea" stroke="#8a8a92" stroke-width="1.2"/>
<text class="lbl" x="119.0" y="920.0" text-anchor="middle">P2</text>
<text class="nm" x="119.0" y="934.0" text-anchor="middle">distinct_creators</text></g>
<g><title>LeanDag.Faults.card_byzantine — Faults.card_byzantine</title>
<rect x="40.0" y="956.0" width="158" height="36" rx="5" fill="#f3e5d0" stroke="#b08a4a" stroke-width="1.2"/>
<text class="lbl" x="119.0" y="968.0" text-anchor="middle">A2</text>
<text class="nm" x="119.0" y="982.0" text-anchor="middle">card_byzantine</text></g>
<g><title>LeanDag.ValidWrt.predecessor — ValidWrt.predecessor</title>
<rect x="40.0" y="1004.0" width="158" height="36" rx="5" fill="#e8e8ea" stroke="#8a8a92" stroke-width="1.2"/>
<text class="lbl" x="119.0" y="1016.0" text-anchor="middle">P1</text>
<text class="nm" x="119.0" y="1030.0" text-anchor="middle">predecessor</text></g>
<g><title>LeanDag.ValidWrt.quorum — ValidWrt.quorum</title>
<rect x="40.0" y="1052.0" width="158" height="36" rx="5" fill="#e8e8ea" stroke="#8a8a92" stroke-width="1.2"/>
<text class="lbl" x="119.0" y="1064.0" text-anchor="middle">P3</text>
<text class="nm" x="119.0" y="1078.0" text-anchor="middle">quorum</text></g>
<g><title>LeanDag.Faults.card_validators — Faults.card_validators</title>
<rect x="40.0" y="1100.0" width="158" height="36" rx="5" fill="#f3e5d0" stroke="#b08a4a" stroke-width="1.2"/>
<text class="lbl" x="119.0" y="1112.0" text-anchor="middle">A1</text>
<text class="nm" x="119.0" y="1126.0" text-anchor="middle">card_validators</text></g>
<g><title>LeanDag.FairScheduleOn — FairScheduleOn</title>
<rect x="40.0" y="1148.0" width="158" height="36" rx="5" fill="#e8e8ea" stroke="#8a8a92" stroke-width="1.2"/>
<text class="lbl" x="119.0" y="1160.0" text-anchor="middle">P10</text>
<text class="nm" x="119.0" y="1174.0" text-anchor="middle">FairScheduleOn</text></g>
<g><title>LeanDag.BlockUniverse.complete — BlockUniverse.complete</title>
<rect x="40.0" y="1196.0" width="158" height="36" rx="5" fill="#e8e8ea" stroke="#8a8a92" stroke-width="1.2"/>
<text class="lbl" x="119.0" y="1208.0" text-anchor="middle">P4</text>
<text class="nm" x="119.0" y="1222.0" text-anchor="middle">complete</text></g>
<g><title>LeanDag.BlockUniverse.no_equivocation — BlockUniverse.no_equivocation</title>
<rect x="40.0" y="1244.0" width="158" height="36" rx="5" fill="#e8e8ea" stroke="#8a8a92" stroke-width="1.2"/>
<text class="lbl" x="119.0" y="1256.0" text-anchor="middle">P5</text>
<text class="nm" x="119.0" y="1270.0" text-anchor="middle">no_equivocation</text></g>
<g><title>LeanDag.Delivery.includes — Delivery.includes</title>
<rect x="40.0" y="1292.0" width="158" height="36" rx="5" fill="#e8e8ea" stroke="#8a8a92" stroke-width="1.2"/>
<text class="lbl" x="119.0" y="1304.0" text-anchor="middle">P7</text>
<text class="nm" x="119.0" y="1318.0" text-anchor="middle">includes</text></g>
<g><title>LeanDag.EventuallyDelivers — EventuallyDelivers</title>
<rect x="40.0" y="1340.0" width="158" height="36" rx="5" fill="#fbdcdc" stroke="#c06a6a" stroke-width="1.2"/>
<text class="lbl" x="119.0" y="1352.0" text-anchor="middle">N2a</text>
<text class="nm" x="119.0" y="1366.0" text-anchor="middle">EventuallyDelivers</text></g>
<g><title>LeanDag.Live.builds — Live.builds</title>
<rect x="40.0" y="1388.0" width="158" height="36" rx="5" fill="#e8e8ea" stroke="#8a8a92" stroke-width="1.2"/>
<text class="lbl" x="119.0" y="1400.0" text-anchor="middle">P8</text>
<text class="nm" x="119.0" y="1414.0" text-anchor="middle">builds</text></g>
<g><title>LeanDag.Timing.covers — Timing.covers</title>
<rect x="40.0" y="1436.0" width="158" height="36" rx="5" fill="#fbdcdc" stroke="#c06a6a" stroke-width="1.2"/>
<text class="lbl" x="119.0" y="1448.0" text-anchor="middle">N2b</text>
<text class="nm" x="119.0" y="1462.0" text-anchor="middle">covers</text></g>
<g><title>LeanDag.Timing.waits — Timing.waits</title>
<rect x="40.0" y="1484.0" width="158" height="36" rx="5" fill="#e8e8ea" stroke="#8a8a92" stroke-width="1.2"/>
<text class="lbl" x="119.0" y="1496.0" text-anchor="middle">P9</text>
<text class="nm" x="119.0" y="1510.0" text-anchor="middle">waits</text></g>
<g><title>LeanDag.Properties.Persist.of_banded — what is derived: persistence, truncation invariance, leader commits, descent</title>
<rect x="548.0" y="788.0" width="158" height="36" rx="5" fill="#dce8f7" stroke="#5a7fa8" stroke-width="1.2"/>
<text class="lbl" x="627.0" y="800.0" text-anchor="middle">TP4</text>
<text class="nm" x="627.0" y="814.0" text-anchor="middle">of_banded</text></g>
<g><title>LeanDag.FinWhale.Creation.lemma20 — both commit paths on the reactive schedule</title>
<rect x="548.0" y="836.0" width="158" height="36" rx="5" fill="#dce8f7" stroke="#5a7fa8" stroke-width="1.2"/>
<text class="lbl" x="627.0" y="848.0" text-anchor="middle">FW8</text>
<text class="nm" x="627.0" y="862.0" text-anchor="middle">lemma20</text></g>
<g><title>LeanDag.FinWhale.leaderClause_of_dosValid — a DoS-valid universe is a FinWhale DAG at any leader schedule</title>
<rect x="548.0" y="884.0" width="158" height="36" rx="5" fill="#dce8f7" stroke="#5a7fa8" stroke-width="1.2"/>
<text class="lbl" x="627.0" y="896.0" text-anchor="middle">FW13</text>
<text class="nm" x="627.0" y="910.0" text-anchor="middle">leaderClause_of_dosValid</text></g>
<g><title>LeanDag.PaceCore.viewAt — liveness is local: a validator decides on its own view</title>
<rect x="548.0" y="932.0" width="158" height="36" rx="5" fill="#dce8f7" stroke="#5a7fa8" stroke-width="1.2"/>
<text class="lbl" x="627.0" y="944.0" text-anchor="middle">V18</text>
<text class="nm" x="627.0" y="958.0" text-anchor="middle">viewAt</text></g>
<g><title>LeanDag.certificates_eq_empty_of_directSkip — a skipped block has no certificate anywhere</title>
<rect x="548.0" y="980.0" width="158" height="36" rx="5" fill="#dce8f7" stroke="#5a7fa8" stroke-width="1.2"/>
<text class="lbl" x="627.0" y="992.0" text-anchor="middle">M3</text>
<text class="nm" x="627.0" y="1006.0" text-anchor="middle">certificates_eq_empty_of…</text></g>
<g><title>LeanDag.exists_certificate_reaches_of_directCommit — a committed block&#x27;s certificate is unavoidable from `r+3`</title>
<rect x="548.0" y="1028.0" width="158" height="36" rx="5" fill="#dce8f7" stroke="#5a7fa8" stroke-width="1.2"/>
<text class="lbl" x="627.0" y="1040.0" text-anchor="middle">M2</text>
<text class="nm" x="627.0" y="1054.0" text-anchor="middle">exists_certificate_reach…</text></g>
<g><title>LeanDag.eq_of_certificates_nonempty — certificate uniqueness</title>
<rect x="548.0" y="1076.0" width="158" height="36" rx="5" fill="#dce8f7" stroke="#5a7fa8" stroke-width="1.2"/>
<text class="lbl" x="627.0" y="1088.0" text-anchor="middle">M5′</text>
<text class="nm" x="627.0" y="1102.0" text-anchor="middle">eq_of_certificates_nonem…</text></g>
<g><title>LeanDag.exists_correct_common_support — correct-support counting</title>
<rect x="548.0" y="1124.0" width="158" height="36" rx="5" fill="#dce8f7" stroke="#5a7fa8" stroke-width="1.2"/>
<text class="lbl" x="627.0" y="1136.0" text-anchor="middle">T3a</text>
<text class="nm" x="627.0" y="1150.0" text-anchor="middle">exists_correct_common_su…</text></g>
<g><title>LeanDag.ViewPace.synchronisedOn_of_converges — coverage from view convergence, drift-free</title>
<rect x="548.0" y="1172.0" width="158" height="36" rx="5" fill="#dce8f7" stroke="#5a7fa8" stroke-width="1.2"/>
<text class="lbl" x="627.0" y="1184.0" text-anchor="middle">L7</text>
<text class="nm" x="627.0" y="1198.0" text-anchor="middle">synchronisedOn_of_conver…</text></g>
<g><title>LeanDag.card_authorsAt_of_lt — the DAG is dense below its frontier</title>
<rect x="548.0" y="1220.0" width="158" height="36" rx="5" fill="#dce8f7" stroke="#5a7fa8" stroke-width="1.2"/>
<text class="lbl" x="627.0" y="1232.0" text-anchor="middle">L0</text>
<text class="nm" x="627.0" y="1246.0" text-anchor="middle">card_authorsAt_of_lt</text></g>
<g><title>LeanDag.reaches_of_quorum_support — persistence</title>
<rect x="548.0" y="1268.0" width="158" height="36" rx="5" fill="#dce8f7" stroke="#5a7fa8" stroke-width="1.2"/>
<text class="lbl" x="627.0" y="1280.0" text-anchor="middle">T3</text>
<text class="nm" x="627.0" y="1294.0" text-anchor="middle">reaches_of_quorum_support</text></g>
<g><title>LeanDag.exists_correct_mem_creators_inter — two quorum-backed identifier sets share a correct author</title>
<rect x="548.0" y="1316.0" width="158" height="36" rx="5" fill="#dce8f7" stroke="#5a7fa8" stroke-width="1.2"/>
<text class="lbl" x="627.0" y="1328.0" text-anchor="middle">T0′</text>
<text class="nm" x="627.0" y="1342.0" text-anchor="middle">exists_correct_mem_creat…</text></g>
<g><title>LeanDag.FinWhaleProperties.agree — two validators never decide a leader slot differently</title>
<rect x="548.0" y="1364.0" width="158" height="36" rx="5" fill="#dce8f7" stroke="#5a7fa8" stroke-width="1.2"/>
<text class="lbl" x="627.0" y="1376.0" text-anchor="middle">FW4</text>
<text class="nm" x="627.0" y="1390.0" text-anchor="middle">agree</text></g>
<g><title>LeanDag.commits_recur_within — the committing slot, and its round</title>
<rect x="548.0" y="1412.0" width="158" height="36" rx="5" fill="#dce8f7" stroke="#5a7fa8" stroke-width="1.2"/>
<text class="lbl" x="627.0" y="1424.0" text-anchor="middle">L8b</text>
<text class="nm" x="627.0" y="1438.0" text-anchor="middle">commits_recur_within</text></g>
<g><title>LeanDag.Properties.Support.Lives — the liveness headline: progress and inclusion at the rule&#x27;s support</title>
<rect x="548.0" y="1460.0" width="158" height="36" rx="5" fill="#dce8f7" stroke="#5a7fa8" stroke-width="1.2"/>
<text class="lbl" x="627.0" y="1472.0" text-anchor="middle">TP12</text>
<text class="nm" x="627.0" y="1486.0" text-anchor="middle">Lives</text></g>
<g><title>LeanDag.Properties.Support.live_of_truncates — liveness across a cut, a fill, and any stack</title>
<rect x="548.0" y="1508.0" width="158" height="36" rx="5" fill="#dce8f7" stroke="#5a7fa8" stroke-width="1.2"/>
<text class="lbl" x="627.0" y="1520.0" text-anchor="middle">TP7</text>
<text class="nm" x="627.0" y="1534.0" text-anchor="middle">live_of_truncates</text></g>
<g><title>LeanDag.Timed.live_of_coverage — synchrony is the timed model&#x27;s, not a property: the one bridge into `live`</title>
<rect x="548.0" y="1556.0" width="158" height="36" rx="5" fill="#dce8f7" stroke="#5a7fa8" stroke-width="1.2"/>
<text class="lbl" x="627.0" y="1568.0" text-anchor="middle">TP5</text>
<text class="nm" x="627.0" y="1582.0" text-anchor="middle">live_of_coverage</text></g>
<g><title>LeanDag.Properties.Support.decidedBelow_of_fairRun — every slot below a fair run is decided, at `live`</title>
<rect x="802.0" y="956.0" width="158" height="36" rx="5" fill="#dce8f7" stroke="#5a7fa8" stroke-width="1.2"/>
<text class="lbl" x="881.0" y="968.0" text-anchor="middle">TP8</text>
<text class="nm" x="881.0" y="982.0" text-anchor="middle">decidedBelow_of_fairRun</text></g>
<g><title>LeanDag.FinWhale.fastCommit_latency — the fast commit within two message delays, the timeout never firing</title>
<rect x="802.0" y="1004.0" width="158" height="36" rx="5" fill="#dce8f7" stroke="#5a7fa8" stroke-width="1.2"/>
<text class="lbl" x="881.0" y="1016.0" text-anchor="middle">FW9</text>
<text class="nm" x="881.0" y="1030.0" text-anchor="middle">fastCommit_latency</text></g>
<g><title>LeanDag.FinWhale.Run.ofDoSValidReactive — and on the reactive schedule it is a run, at every horizon; the condition never leaves a builder short of citable authors</title>
<rect x="802.0" y="1052.0" width="158" height="36" rx="5" fill="#dce8f7" stroke="#5a7fa8" stroke-width="1.2"/>
<text class="lbl" x="881.0" y="1064.0" text-anchor="middle">FW14</text>
<text class="nm" x="881.0" y="1078.0" text-anchor="middle">ofDoSValidReactive</text></g>
<g><title>LeanDag.FinWhale.Run.agreement — what a validator guarantees: agreement, total order, integrity, validity</title>
<rect x="802.0" y="1100.0" width="158" height="36" rx="5" fill="#dce8f7" stroke="#5a7fa8" stroke-width="1.2"/>
<text class="lbl" x="881.0" y="1112.0" text-anchor="middle">FW12</text>
<text class="nm" x="881.0" y="1126.0" text-anchor="middle">agreement</text></g>
<g><title>LeanDag.not_directCommit_of_directSkip — no block is both committed and skipped</title>
<rect x="802.0" y="1148.0" width="158" height="36" rx="5" fill="#dce8f7" stroke="#5a7fa8" stroke-width="1.2"/>
<text class="lbl" x="881.0" y="1160.0" text-anchor="middle">M1</text>
<text class="nm" x="881.0" y="1174.0" text-anchor="middle">not_directCommit_of_dire…</text></g>
<g><title>LeanDag.indirect_agrees_with_direct — the indirect rule agrees with the direct</title>
<rect x="802.0" y="1196.0" width="158" height="36" rx="5" fill="#dce8f7" stroke="#5a7fa8" stroke-width="1.2"/>
<text class="lbl" x="881.0" y="1208.0" text-anchor="middle">M4</text>
<text class="nm" x="881.0" y="1222.0" text-anchor="middle">indirect_agrees_with_dir…</text></g>
<g><title>LeanDag.eq_of_directCommit_of_creator_eq — at most one block per slot is directly committed</title>
<rect x="802.0" y="1244.0" width="158" height="36" rx="5" fill="#dce8f7" stroke="#5a7fa8" stroke-width="1.2"/>
<text class="lbl" x="881.0" y="1256.0" text-anchor="middle">M5</text>
<text class="nm" x="881.0" y="1270.0" text-anchor="middle">eq_of_directCommit_of_cr…</text></g>
<g><title>LeanDag.exists_common_correct_ancestor — a common correct ancestor</title>
<rect x="802.0" y="1292.0" width="158" height="36" rx="5" fill="#dce8f7" stroke="#5a7fa8" stroke-width="1.2"/>
<text class="lbl" x="881.0" y="1304.0" text-anchor="middle">T3c</text>
<text class="nm" x="881.0" y="1318.0" text-anchor="middle">exists_common_correct_an…</text></g>
<g><title>LeanDag.ViewPace.directCommit_of_wait — the wait bound</title>
<rect x="802.0" y="1340.0" width="158" height="36" rx="5" fill="#dce8f7" stroke="#5a7fa8" stroke-width="1.2"/>
<text class="lbl" x="881.0" y="1352.0" text-anchor="middle">L9</text>
<text class="nm" x="881.0" y="1366.0" text-anchor="middle">directCommit_of_wait</text></g>
<g><title>LeanDag.ViewPace.synchronisedOn_of_rate — the round of coverage, explicitly</title>
<rect x="802.0" y="1388.0" width="158" height="36" rx="5" fill="#dce8f7" stroke="#5a7fa8" stroke-width="1.2"/>
<text class="lbl" x="881.0" y="1400.0" text-anchor="middle">L8a</text>
<text class="nm" x="881.0" y="1414.0" text-anchor="middle">synchronisedOn_of_rate</text></g>
<g><title>LeanDag.all_decided_below_of_fairRun — every slot below a fair run is decided (pipelined)</title>
<rect x="1056.0" y="1172.0" width="158" height="36" rx="5" fill="#dce8f7" stroke="#5a7fa8" stroke-width="1.2"/>
<text class="lbl" x="1135.0" y="1184.0" text-anchor="middle">L10</text>
<text class="nm" x="1135.0" y="1198.0" text-anchor="middle">all_decided_below_of_fai…</text></g>
</svg>